<svg xmlns="http://www.w3.org/2000/svg" width="538" height="33" viewBox="0 0 538 33"><defs><clipPath id="t9cwa"><path d="M530.916 18.689c.204.029-.39.158-.595.169-2.181.116-4.374.01-6.549.211-.43.04-.765.436-1.191.508-.685.115-1.39.05-2.084.042-5.954-.063-11.907-.168-17.861-.254-1.172-.017-4.586-.176-5.656.254-.39.157.77.396 1.19.423 2.674.172 5.36.064 8.038.17.896.035 3.57.155 2.679.253-2.17.237-4.402-.23-6.549.17-.896.166 3.586.454 2.679.549-2.763.29-5.572-.252-8.335.042-.461.05.733.649 1.191.72 2.064.316 8.316.108 6.251.422-3.434.523-6.945.216-10.419.212-9.13-.01-18.258-.176-27.387-.254-7.442-.063-14.885-.134-22.327-.17-1.39-.006-2.789-.125-4.168.043-.693.084 1.386.196 2.084.212 6.747.153 13.495.187 20.243.296 9.03.145 18.06.277 27.09.465 3.87.08 7.74.235 11.61.338 2.48.066 4.961.114 7.442.17 1.29.028 2.654-.348 3.87.084.677.24-1.386.38-2.084.55a53.03 53.03 0 0 1-2.084.465c-.493.1-1.274-.202-1.488.254-.571 1.218 1.976 1.053 2.084 1.142.561.458.514 1.558 1.19 1.819 1.875.721 7.87.325 5.954.93-2.744.867-5.755-.101-8.633-.085-2.084.012-4.167.116-6.251.17-1.19.03-2.382.09-3.573.084-13.992-.078-27.982-.257-41.974-.338-5.458-.032-10.916-.056-16.373 0-1.39.014-2.82-.133-4.167.211-.867.222 1.784.152 2.679.17 4.762.094 9.526.119 14.289.169 5.954.062 11.91-.01 17.861.169.612.018 1.175.39 1.786.423 2.415.13 20.777.431 22.625.465 3.77.069 7.55-.046 11.312.211 1.414.097 4.168-.571 4.168.846 0 1.392-2.778.185-4.168.254-2.282.114-4.563.296-6.847.296-6.847 0-13.693-.203-20.54-.296-1.489-.02-2.977-.031-4.466-.042-4.168-.031-8.335-.05-12.503-.085-9.328-.078-18.655-.165-27.983-.253-2.58-.025-5.16-.067-7.74-.085-1.488-.01-2.977-.005-4.465 0-7.045.023-14.09.072-21.136.085-8.93.015-17.861-.039-26.792 0-.993.004-1.985.077-2.977.126-.993.05-1.983.192-2.977.17-.898-.02-1.78-.293-2.679-.296-2.284-.01-4.564.182-6.847.253-.893.028-1.786.045-2.679.043-5.358-.012-10.717-.085-16.075-.085-8.732 0-17.465.05-26.197.085-1.786.007-3.572.034-5.358.042-1.29.006-2.58-.007-3.87 0-3.672.02-7.344.037-11.015.085-1.786.023-3.572.113-5.358.126-11.118.081-28.667.153-41.379.127-3.076-.006-6.152-.042-9.228-.042-.695 0-1.39.036-2.084.042-2.68.023-5.359.043-8.038.043-.893 0-1.786-.045-2.679-.043-3.87.012-7.74.079-11.61.085-5.06.008-10.121-.027-15.182-.042-8.93-.027-17.861-.047-26.792-.085-7.84-.033-15.679-.09-23.518-.127-1.618-.008-17.485-.055-20.54-.084-5.954-.058-11.908-.159-17.862-.212-5.06-.045-10.121-.05-15.182-.085-1.29-.008-2.58-.014-3.87-.042-2.58-.056-5.16-.141-7.74-.211-1.587-.043-3.175-.095-4.763-.127-5.358-.109-10.716-.223-16.075-.296-2.878-.04-5.756-.005-8.633-.043-2.481-.032-4.962-.112-7.442-.169-4.863-.112-9.725-.213-14.587-.338-3.87-.1-7.741-.185-11.61-.338-1.094-.044-2.18-.226-3.275-.254-2.182-.057-4.375.201-6.549 0-2.408-.223-4.794-.699-7.144-1.27-.151-.036.076-.33 0-.464-.138-.244-.503-.328-.596-.592-.043-.123.19-.182.298-.254.19-.126.37-.299.595-.339a65.088 65.088 0 0 1 5.359-.719c.79-.073 1.749.48 2.381 0 .435-.329-1.836-.257-1.488-.676.592-.715 3.156.035 2.68-.762-.696-1.16-4.438.002-3.87-1.226.73-1.586 5.06.392 5.06-1.354 0-1.735-3.898.062-5.06-1.226-.804-.89 2.529.17 3.571-.423.617-.35-2.777-.275-2.083-.423 2.043-.436 4.186-.143 6.251-.465.182-.029-.397-.31-.298-.466.181-.282 1.226-.422.893-.465-3.651-.473-7.43-.002-11.014-.846-.556-.13.182-1.213.595-1.607.37-.354.991-.26 1.489-.38.197-.049.422-.021.595-.128.147-.09.153-.33.298-.423.268-.171.758-.05.893-.338.094-.2-.464-.118-.596-.296-.1-.136-.038-.343 0-.508.063-.265.535-.626.298-.76-.7-.4-2.163.352-2.381-.424-.283-1.003 2.171-1.962 1.488-2.749-.913-1.053-2.793-.11-4.168-.338-.212-.036.382-.229.596-.254 1.582-.187 3.23.055 4.763-.38.509-.145-1.664-.052-1.489-.55.2-.57 1.634.287 1.787-.297.144-.552-1.628-.292-1.489-.846.062-.247 4.59-.528 4.168-.888-.999-.851-2.785.018-3.87-.719-.447-.303.837-.69 1.19-1.1.042-.048 1.67-2.491 1.787-2.537.928-.365 2.03.017 2.977-.296.21-.07-.49-.483-.298-.592.432-.246.991-.085 1.488-.085 5.061 0 10.122.05 15.183.085 1.091.007 2.182.038 3.274.042 6.053.024 12.107-.028 18.16.042.056 0 .056.168 0 .17-2.68.056-10.7-.316-8.038 0 3.845.455 7.74.288 11.61.422 1.272.044 5.097.098 5.656.085.499-.012 1.488.33 1.488-.17 0-.505-1.488.21-1.488-.295 0-.525 1.925-.218 1.488-.508a1.118 1.118 0 0 0-.27-.13c1.579 0 3.157.015 4.735.003C67.414.87 69.2.83 70.986.798 74.558.732 78.13.609 81.703.586c5.06-.033 10.121.007 15.182.042 13.197.092 26.395.23 39.592.339 33.657.278 50.534.4 85.735.634 9.328.062 18.655.105 27.983.17 5.06.034 10.121.092 15.182.126 3.374.023 6.748.009 10.122.043 2.282.022 4.564.113 6.846.126 2.382.015 4.763-.051 7.145-.042 1.29.005 2.58.072 3.87.085 2.878.029 5.755.036 8.633.042 3.473.008 6.946-.055 10.419 0 1.887.03 3.769.246 5.656.254 1.688.006 3.373-.214 5.061-.212 8.733.012 17.465.177 26.197.254 5.656.05 11.312.083 16.968.127 8.732.068 17.465.15 26.197.211 9.129.065 18.258.112 27.387.17 8.732.055 17.465.116 26.197.169 7.64.046 15.281.065 22.922.127 4.565.037 9.13.106 13.694.169 5.656.078 11.312.158 16.968.254 2.68.045 5.372-.107 8.037.169.521.054-1.231.05-1.488.507-.171.305.549.49.893.55 1.077.186 2.274-.27 3.275.17.387.17-.406 1.15 0 1.268.305.089 5.692.453 8.037.973 1.292.287 2.575.617 3.87.888.59.124 2.341.06 1.786.296-1.01.43-2.21.074-3.274.339-.202.05-.09.534-.298.55-4.456.33-8.964-.104-13.396.465-1.398.18 2.76.641 4.168.719 5.253.29 10.523.116 15.777.38 1.206.061 2.372.473 3.573.593 1.483.148 2.982.065 4.465.211.205.02-.39.146-.595.17-1.188.132-2.427-.043-3.573.295-.287.085-.559.702-.297.846.888.49 1.987.411 2.976.635 1.194.27 2.396.511 3.573.846.054.015.048.14 0 .169-.87.521-1.755 1.02-2.679 1.438-.181.082-.397.042-.596.042-3.275 0-6.55-.05-9.824-.042-3.274.007-6.549.053-9.823.084-1.092.011-2.183.032-3.275.043-1.786.017-3.572.039-5.358.042-6.053.01-12.106-.031-18.159 0-.596.003 1.193.024 1.786.085 1.194.122 2.374.391 3.572.465 1.783.11 3.576-.042 5.358.084.61.044 1.175.402 1.787.423 8.729.304 17.469.204 26.196.55.529.021.967.466 1.489.55 1.08.173 2.191.058 3.274.211zM58.78.924c-.267-.022.43-.037.79-.04a3.782 3.782 0 0 1-.79.04zm.79-.04c.46-.06.924-.136 1.322-.005a190.449 190.449 0 0 0-1.323.004zm-4.957.506l.595.084-.298.043c-.297 0-.297 0-.595-.043.298-.042.298-.042.298-.084z"/></clipPath></defs><g><g><g><path d="M530.916 18.689c.204.029-.39.158-.595.169-2.181.116-4.374.01-6.549.211-.43.04-.765.436-1.191.508-.685.115-1.39.05-2.084.042-5.954-.063-11.907-.168-17.861-.254-1.172-.017-4.586-.176-5.656.254-.39.157.77.396 1.19.423 2.674.172 5.36.064 8.038.17.896.035 3.57.155 2.679.253-2.17.237-4.402-.23-6.549.17-.896.166 3.586.454 2.679.549-2.763.29-5.572-.252-8.335.042-.461.05.733.649 1.191.72 2.064.316 8.316.108 6.251.422-3.434.523-6.945.216-10.419.212-9.13-.01-18.258-.176-27.387-.254-7.442-.063-14.885-.134-22.327-.17-1.39-.006-2.789-.125-4.168.043-.693.084 1.386.196 2.084.212 6.747.153 13.495.187 20.243.296 9.03.145 18.06.277 27.09.465 3.87.08 7.74.235 11.61.338 2.48.066 4.961.114 7.442.17 1.29.028 2.654-.348 3.87.084.677.24-1.386.38-2.084.55a53.03 53.03 0 0 1-2.084.465c-.493.1-1.274-.202-1.488.254-.571 1.218 1.976 1.053 2.084 1.142.561.458.514 1.558 1.19 1.819 1.875.721 7.87.325 5.954.93-2.744.867-5.755-.101-8.633-.085-2.084.012-4.167.116-6.251.17-1.19.03-2.382.09-3.573.084-13.992-.078-27.982-.257-41.974-.338-5.458-.032-10.916-.056-16.373 0-1.39.014-2.82-.133-4.167.211-.867.222 1.784.152 2.679.17 4.762.094 9.526.119 14.289.169 5.954.062 11.91-.01 17.861.169.612.018 1.175.39 1.786.423 2.415.13 20.777.431 22.625.465 3.77.069 7.55-.046 11.312.211 1.414.097 4.168-.571 4.168.846 0 1.392-2.778.185-4.168.254-2.282.114-4.563.296-6.847.296-6.847 0-13.693-.203-20.54-.296-1.489-.02-2.977-.031-4.466-.042-4.168-.031-8.335-.05-12.503-.085-9.328-.078-18.655-.165-27.983-.253-2.58-.025-5.16-.067-7.74-.085-1.488-.01-2.977-.005-4.465 0-7.045.023-14.09.072-21.136.085-8.93.015-17.861-.039-26.792 0-.993.004-1.985.077-2.977.126-.993.05-1.983.192-2.977.17-.898-.02-1.78-.293-2.679-.296-2.284-.01-4.564.182-6.847.253-.893.028-1.786.045-2.679.043-5.358-.012-10.717-.085-16.075-.085-8.732 0-17.465.05-26.197.085-1.786.007-3.572.034-5.358.042-1.29.006-2.58-.007-3.87 0-3.672.02-7.344.037-11.015.085-1.786.023-3.572.113-5.358.126-11.118.081-28.667.153-41.379.127-3.076-.006-6.152-.042-9.228-.042-.695 0-1.39.036-2.084.042-2.68.023-5.359.043-8.038.043-.893 0-1.786-.045-2.679-.043-3.87.012-7.74.079-11.61.085-5.06.008-10.121-.027-15.182-.042-8.93-.027-17.861-.047-26.792-.085-7.84-.033-15.679-.09-23.518-.127-1.618-.008-17.485-.055-20.54-.084-5.954-.058-11.908-.159-17.862-.212-5.06-.045-10.121-.05-15.182-.085-1.29-.008-2.58-.014-3.87-.042-2.58-.056-5.16-.141-7.74-.211-1.587-.043-3.175-.095-4.763-.127-5.358-.109-10.716-.223-16.075-.296-2.878-.04-5.756-.005-8.633-.043-2.481-.032-4.962-.112-7.442-.169-4.863-.112-9.725-.213-14.587-.338-3.87-.1-7.741-.185-11.61-.338-1.094-.044-2.18-.226-3.275-.254-2.182-.057-4.375.201-6.549 0-2.408-.223-4.794-.699-7.144-1.27-.151-.036.076-.33 0-.464-.138-.244-.503-.328-.596-.592-.043-.123.19-.182.298-.254.19-.126.37-.299.595-.339a65.088 65.088 0 0 1 5.359-.719c.79-.073 1.749.48 2.381 0 .435-.329-1.836-.257-1.488-.676.592-.715 3.156.035 2.68-.762-.696-1.16-4.438.002-3.87-1.226.73-1.586 5.06.392 5.06-1.354 0-1.735-3.898.062-5.06-1.226-.804-.89 2.529.17 3.571-.423.617-.35-2.777-.275-2.083-.423 2.043-.436 4.186-.143 6.251-.465.182-.029-.397-.31-.298-.466.181-.282 1.226-.422.893-.465-3.651-.473-7.43-.002-11.014-.846-.556-.13.182-1.213.595-1.607.37-.354.991-.26 1.489-.38.197-.049.422-.021.595-.128.147-.09.153-.33.298-.423.268-.171.758-.05.893-.338.094-.2-.464-.118-.596-.296-.1-.136-.038-.343 0-.508.063-.265.535-.626.298-.76-.7-.4-2.163.352-2.381-.424-.283-1.003 2.171-1.962 1.488-2.749-.913-1.053-2.793-.11-4.168-.338-.212-.036.382-.229.596-.254 1.582-.187 3.23.055 4.763-.38.509-.145-1.664-.052-1.489-.55.2-.57 1.634.287 1.787-.297.144-.552-1.628-.292-1.489-.846.062-.247 4.59-.528 4.168-.888-.999-.851-2.785.018-3.87-.719-.447-.303.837-.69 1.19-1.1.042-.048 1.67-2.491 1.787-2.537.928-.365 2.03.017 2.977-.296.21-.07-.49-.483-.298-.592.432-.246.991-.085 1.488-.085 5.061 0 10.122.05 15.183.085 1.091.007 2.182.038 3.274.042 6.053.024 12.107-.028 18.16.042.056 0 .056.168 0 .17-2.68.056-10.7-.316-8.038 0 3.845.455 7.74.288 11.61.422 1.272.044 5.097.098 5.656.085.499-.012 1.488.33 1.488-.17 0-.505-1.488.21-1.488-.295 0-.525 1.925-.218 1.488-.508a1.118 1.118 0 0 0-.27-.13c1.579 0 3.157.015 4.735.003C67.414.87 69.2.83 70.986.798 74.558.732 78.13.609 81.703.586c5.06-.033 10.121.007 15.182.042 13.197.092 26.395.23 39.592.339 33.657.278 50.534.4 85.735.634 9.328.062 18.655.105 27.983.17 5.06.034 10.121.092 15.182.126 3.374.023 6.748.009 10.122.043 2.282.022 4.564.113 6.846.126 2.382.015 4.763-.051 7.145-.042 1.29.005 2.58.072 3.87.085 2.878.029 5.755.036 8.633.042 3.473.008 6.946-.055 10.419 0 1.887.03 3.769.246 5.656.254 1.688.006 3.373-.214 5.061-.212 8.733.012 17.465.177 26.197.254 5.656.05 11.312.083 16.968.127 8.732.068 17.465.15 26.197.211 9.129.065 18.258.112 27.387.17 8.732.055 17.465.116 26.197.169 7.64.046 15.281.065 22.922.127 4.565.037 9.13.106 13.694.169 5.656.078 11.312.158 16.968.254 2.68.045 5.372-.107 8.037.169.521.054-1.231.05-1.488.507-.171.305.549.49.893.55 1.077.186 2.274-.27 3.275.17.387.17-.406 1.15 0 1.268.305.089 5.692.453 8.037.973 1.292.287 2.575.617 3.87.888.59.124 2.341.06 1.786.296-1.01.43-2.21.074-3.274.339-.202.05-.09.534-.298.55-4.456.33-8.964-.104-13.396.465-1.398.18 2.76.641 4.168.719 5.253.29 10.523.116 15.777.38 1.206.061 2.372.473 3.573.593 1.483.148 2.982.065 4.465.211.205.02-.39.146-.595.17-1.188.132-2.427-.043-3.573.295-.287.085-.559.702-.297.846.888.49 1.987.411 2.976.635 1.194.27 2.396.511 3.573.846.054.015.048.14 0 .169-.87.521-1.755 1.02-2.679 1.438-.181.082-.397.042-.596.042-3.275 0-6.55-.05-9.824-.042-3.274.007-6.549.053-9.823.084-1.092.011-2.183.032-3.275.043-1.786.017-3.572.039-5.358.042-6.053.01-12.106-.031-18.159 0-.596.003 1.193.024 1.786.085 1.194.122 2.374.391 3.572.465 1.783.11 3.576-.042 5.358.084.61.044 1.175.402 1.787.423 8.729.304 17.469.204 26.196.55.529.021.967.466 1.489.55 1.08.173 2.191.058 3.274.211zM58.78.924c-.267-.022.43-.037.79-.04a3.782 3.782 0 0 1-.79.04zm.79-.04c.46-.06.924-.136 1.322-.005a190.449 190.449 0 0 0-1.323.004zm-4.957.506l.595.084-.298.043c-.297 0-.297 0-.595-.043.298-.042.298-.042.298-.084z"/></g><g clip-path="url(#t9cwa)"><g><path fill="#ff3030" d="M-75.1 9.56h687.663v13.534H-75.1z"/></g><g><path d="M-75.1-3.98h687.663V9.554H-75.1z"/></g><g><path fill="#ffbe15" d="M-75.1 23.09h687.663v13.534H-75.1z"/></g></g></g></g></svg>