<svg xmlns="http://www.w3.org/2000/svg" width="35" height="35" viewBox="0 0 35 35"><g><g><path fill="#fff" d="M.54 17.708C.54 8.204 8.244.5 17.748.5c9.504 0 17.209 7.704 17.209 17.208 0 9.504-7.705 17.209-17.209 17.209S.54 27.212.54 17.708zm14.447-6.023a3.263 3.263 0 0 0-3.262 3.262v5.526a3.265 3.265 0 0 0 3.262 3.261h5.526a3.265 3.265 0 0 0 3.261-3.261v-5.526a3.268 3.268 0 0 0-3.264-3.262zm2.761 2.73a3.296 3.296 0 0 1 3.294 3.293 3.296 3.296 0 0 1-3.294 3.294 3.296 3.296 0 0 1-3.293-3.294 3.296 3.296 0 0 1 3.293-3.293zm3.374-1.17a.973.973 0 1 1 .001 1.944.973.973 0 0 1-.001-1.945zm-3.374 1.875a2.592 2.592 0 0 0-2.588 2.588 2.592 2.592 0 0 0 2.588 2.588 2.592 2.592 0 0 0 2.588-2.588 2.592 2.592 0 0 0-2.588-2.588zm3.374-.635c.147 0 .267-.12.267-.268a.269.269 0 0 0-.267-.267.268.268 0 0 0-.268.267c0 .147.12.268.268.268z"/></g></g></svg>