<svg xmlns="http://www.w3.org/2000/svg" width="35" height="36" viewBox="0 0 35 36"><g><g><path fill="#fff" d="M.17 18.17C.17 8.323 7.874.34 17.378.34c9.504 0 17.209 7.983 17.209 17.83 0 9.847-7.705 17.83-17.209 17.83S.17 28.016.17 18.17zm21.808-6.127c.512-.321.904-.83 1.086-1.44a4.774 4.774 0 0 1-1.566.632 2.408 2.408 0 0 0-1.8-.824c-1.368 0-2.47 1.172-2.47 2.605 0 .205.017.403.057.595-2.051-.105-3.87-1.145-5.09-2.726a2.77 2.77 0 0 0-.336 1.317c0 .903.439 1.7 1.097 2.164a2.32 2.32 0 0 1-1.116-.321v.03c0 1.267.856 2.316 1.98 2.561-.202.06-.421.086-.647.086-.157 0-.317-.01-.467-.043.32 1.033 1.23 1.79 2.308 1.814a4.812 4.812 0 0 1-3.651 1.075 6.657 6.657 0 0 0 3.783 1.168c4.357 0 7.196-3.835 7.017-7.75.49-.367.904-.824 1.24-1.354a4.89 4.89 0 0 1-1.425.41z"/></g></g></svg>