<svg xmlns="http://www.w3.org/2000/svg" width="40" height="43" viewBox="0 0 40 43"><g><g><g/><g><path fill="#fff" d="M33.397 13.965c0 6.58-.033 13.174.016 19.753.016 3.035-1.91 4.856-3.952 5.201-1.153.197-2.355.082-3.524.115-.429.016-.857 0-1.4 0v3.396c-1.466-.623-2.816-1.148-4.117-1.756-.593-.278-1.103-.262-1.696 0-1.285.591-2.619 1.116-4.068 1.74v-3.38H5.401C2.01 39.018.016 37.065.016 33.718 0 24.4 0 15.081 0 5.762.016 2.415 2.042.43 5.401.43h29.296c3.195 0 5.237 2.002 5.286 5.2.017.821.017 1.641-.016 2.462-.148 2.608-1.993 4.495-4.594 4.692-.626.05-1.252 0-1.977 0v1.181zM24.52 35.621c.149.066.198.099.247.099 1.021.016 2.026.016 3.047.016 1.828 0 2.289-.443 2.289-2.264V9.125 3.728c.082 0-.033-.017-.132-.017H5.105c-1.202 0-1.779.656-1.779 1.953v28.12c0 1.427.56 1.952 2.01 1.952h9.288c0-.984.016-1.887-.017-2.772 0-.164-.198-.378-.362-.443-1.12-.525-1.581-1.411-1.581-2.642 0-.394-.181-.837-.396-1.181-.592-.984-.642-1.92-.098-2.937a4.852 4.852 0 0 0 .51-1.657c.148-1.378.774-2.165 2.124-2.576.33-.098.692-.328.906-.59.939-1.165 1.878-1.477 3.327-1.05.329.098.757.098 1.087 0 1.449-.427 2.404-.131 3.326 1.05.214.279.56.525.89.64 1.53.525 2.074 1.247 2.14 2.887.017.361.148.738.346 1.05.757 1.149.757 2.117 0 3.265-.198.295-.33.69-.346 1.034-.033 1.197-.527 2.083-1.58 2.674-.165.098-.363.295-.363.46-.033.918-.017 1.82-.017 2.673zm-3.935-4.708c.016.082.049.18.065.262.165-.098.33-.197.494-.311.61-.394 1.35-.69 1.762-1.23.396-.542.396-1.363.676-2.002.164-.361.18-.575.016-.952-.247-.59-.165-1.362-.527-1.837-.379-.493-1.186-.64-1.647-1.1-.428-.426-.724-.574-1.317-.393-.412.13-.906-.05-1.367-.05-.247 0-.51.017-.708.132-.642.377-1.416.689-1.828 1.246-.412.558-.477 1.395-.675 2.117-.066.23-.066.476-.016.705.148.657.164 1.411.543 1.92.379.525 1.12.77 1.696 1.165.115.065.165.246.264.295.164.098.378.197.56.197.675-.033 1.333-.115 2.009-.164zm12.86-21.41c.577 0 1.12.032 1.648 0 .955-.066 1.515-.624 1.548-1.559.033-.902.033-1.805 0-2.69-.05-.87-.692-1.477-1.532-1.526-.823-.033-1.597.541-1.647 1.378-.065 1.427-.016 2.87-.016 4.397zM21.195 37.475c0-.968.016-1.739-.017-2.526 0-.132-.18-.312-.329-.378-.84-.311-1.68-.377-2.52-.016-.148.066-.362.213-.362.344-.033.804-.016 1.592-.016 2.61 1.152-.821 2.14-.723 3.244-.034z"/></g><g><path fill="#fff" d="M26.79 7.05v3.166H6.7V7.05h20.09z"/></g><g><path fill="#fff" d="M6.72 13.58h11.824v3.216H6.72V13.58z"/></g></g></g></svg>