<svg xmlns="http://www.w3.org/2000/svg" width="44" height="45" viewBox="0 0 44 45"><g><g><g/><g><path fill="#fff" d="M36.447 3.5c-.086 2.078-.379 2.645-1.36 2.662-.999.034-1.343-.584-1.446-2.68H4.135v25.985h22.276c-.327-.257-.551-.446-.792-.618-2.376-1.734-4.768-3.486-7.144-5.22-1.36-.997-1.687-2.302-.947-3.659.758-1.374 2.066-1.803 3.667-1.168 1.894.756 3.804 1.443 5.646 2.284 1.722.79 3.477 1.048 5.509.79-2.117-.55-3.753-1.58-4.837-3.366-1.085-1.803-1.378-3.727-.792-5.77.98-3.366 4.2-5.547 7.66-5.204 3.409.343 6.197 3.126 6.49 6.509.275 3.143-1.515 6.715-5.732 7.883 1.687 0 3.374-.017 5.06 0 .448 0 .93.034 1.36.154a3.33 3.33 0 0 1 2.428 3.178c.017 2.576.034 5.152 0 7.728-.017 1.803-1.463 3.263-3.271 3.349-.258.017-.5 0-.86 0V42.983c-.018 1.065-.517 1.597-1.567 1.597-3.064.018-6.146 0-9.21 0-1.119 0-1.618-.515-1.618-1.631v-9.703-.98h-6.834c-.12.877-.155 1.512.826 2.044 1.618.86 2.238 2.868 1.704 4.62-.516 1.7-2.134 2.885-3.942 2.903-1.807 0-3.425-1.185-3.96-2.886-.533-1.769.087-3.744 1.688-4.637.964-.532.981-1.167.809-2.095H3.154c-1.411 0-1.859-.43-1.859-1.82V4.462v-.98c-.224-.05-.55-.085-.654-.257C.365 2.78-.065 2.212.02 1.8c.086-.43.706-.773 1.136-1.1.12-.102.396-.016.586-.016 11.413 0 22.826 0 34.256.017.517 0 1.17.206 1.515.566.706.773.224 1.752-1.067 2.233zm-1.722 29.986c.018.052.035.103.035.155h5.336c.982 0 1.12-.155 1.12-1.168V25.86c0-.996-.156-1.15-1.154-1.15-2.634 0-5.285-.087-7.919.016-2.461.103-4.75-.257-6.972-1.34-1.446-.704-2.995-1.219-4.51-1.803.138.31.344.481.568.653 2.703 1.992 5.388 3.984 8.108 5.942.62.447.878.98.878 1.735-.017 3.658-.017 7.333-.017 10.991v.98H36.998v-5.496h-3.34c-1.446 0-2.479-.739-2.754-1.976-.276-1.236.327-2.37 1.618-2.97 1.687-.79 3.374-1.58 5.061-2.353.998-.464 1.739-.258 2.117.566.362.79.018 1.477-.98 1.94-1.31.636-2.652 1.272-3.995 1.89zm-1.067-23.185c-2.462 0-4.476 2.027-4.476 4.483.018 2.421 2.014 4.43 4.424 4.448 2.462.017 4.51-1.993 4.51-4.448.035-2.456-1.996-4.483-4.458-4.483zM20.575 37.797c.017-.739-.602-1.374-1.343-1.408-.74-.018-1.394.6-1.411 1.339-.017.739.602 1.374 1.343 1.408.74.017 1.394-.6 1.411-1.34z"/></g><g><path fill="#fff" d="M14.987 10.988H8.446c-1.016 0-1.618-.515-1.636-1.357-.017-.841.586-1.391 1.601-1.391h13.324c.999 0 1.601.55 1.601 1.391-.017.842-.62 1.34-1.635 1.357h-6.714z"/></g><g><path fill="#fff" d="M11.596 16.484c-1.085 0-2.17.017-3.271 0-.93-.018-1.515-.584-1.515-1.392.017-.79.585-1.34 1.463-1.34 2.238-.016 4.476-.016 6.697 0 .878 0 1.446.568 1.463 1.34.017.808-.585 1.374-1.515 1.392h-3.322z"/></g><g><path fill="#fff" d="M8.19 26.78c-.74 0-1.36-.62-1.36-1.375 0-.79.654-1.408 1.429-1.374.74.035 1.343.67 1.325 1.409-.034.755-.654 1.356-1.394 1.34z"/></g></g></g></svg>