<svg xmlns="http://www.w3.org/2000/svg" width="46" height="42" viewBox="0 0 46 42"><g><g><g/><g><path fill="#fff" d="M2.282 35.633c-.36 0-.774.09-1.062-.037-.45-.219-1.007-.529-1.17-.93-.143-.364.037-1.093.325-1.367 4.085-3.956 6.029-8.987 7.018-14.438.45-2.461.504-4.995.594-7.511.09-2.243.018-4.485.018-6.745 0-1.331.45-1.787 1.8-1.787 1.98-.018 3.96 0 5.939-.018.108 0 .234-.037.378-.073.198-1.058-.252-2.534 1.494-2.625.917-.037 1.17.51 1.385 2.607h6.623c.162-1.04-.306-2.607 1.422-2.59 1.638.02 1.242 1.532 1.35 2.626h6.73c.216-1.039-.323-2.734 1.566-2.607 1.512.11 1.134 1.513 1.242 2.607.324.018.63.055.954.055h5.399c1.26.018 1.71.492 1.71 1.786v34.71c0 1.35-.45 1.806-1.782 1.806H9.769c-1.314 0-1.746-.474-1.746-1.842v-3.627h-5.74zm8.44-21.84c-.341 6.89-2.087 13.326-6.334 19.087h1.188c9.466 0 18.95-.055 28.417.036 1.638.019 2.645-.528 3.581-1.804 2.988-4.066 4.625-8.66 5.345-13.619.18-1.203.252-2.442.378-3.7H10.723zm27.23-8.186c-.162 1.094.288 2.662-1.44 2.625-1.655-.036-1.223-1.55-1.35-2.607h-6.766c-.09 1.094.306 2.534-1.278 2.607-1.8.073-1.35-1.53-1.494-2.607h-6.623c-.198 1.076.252 2.59-1.421 2.607-1.728.019-1.242-1.567-1.458-2.625h-5.345v5.324h32.466V5.607h-5.29zm5.291 21.384c-.036-.018-.09-.018-.126-.036-.126.273-.252.547-.378.802-1.205 2.48-2.681 4.795-4.553 6.836-.684.748-1.44 1.058-2.447 1.058-7.937-.037-15.892-.018-23.828-.018h-1.116v2.661h32.448V26.991z"/></g></g></g></svg>