<svg xmlns="http://www.w3.org/2000/svg" width="48" height="46" viewBox="0 0 48 46"><g><g><g/><g><path fill="#fff" d="M25.165 5.972v2.065c0 .111 0 .316.073.353 1.047.633 1.855 1.749 3.231 1.749h17.625c1.36 0 1.524.167 1.524 1.544V44.05c0 1.396-.202 1.619-1.597 1.619H42.35c-.642 0-1.193-.186-1.193-.949 0-.8.55-.93 1.212-.911 1.101.018 2.184 0 3.341 0v-1.582h-43.2v1.582h32.074c.588 0 .955.297.973.874.019.632-.367.949-.973.986-.22.019-.422 0-.642 0H2.27C.784 45.67.6 45.484.6 43.94V11.757c0-1.488.147-1.618 1.634-1.618 5.838 0 11.695-.019 17.533.018 1.432 0 2.277-1.079 3.342-1.73.146-.093.128-.52.146-.781.019-1.86 0-3.72.019-5.58 0-1.154.257-1.396 1.413-1.396h4.131c.808 0 1.175.39 1.157 1.19a75.316 75.316 0 0 0 0 2.884c.018.874-.404 1.246-1.23 1.246-1.12-.018-2.277-.018-3.58-.018zm6.628 34.266v-7.925H16.499v7.906h3.011c0-.707-.037-1.395 0-2.065.147-2.51 2.13-4.26 4.774-4.222 2.46.037 4.37 1.916 4.46 4.371.02.633 0 1.284 0 1.935h3.049zm13.953-24.649h-5.05v14.734h5.05V15.589zm-36.242-.018v14.733h5.03V15.571h-5.03zm-6.976 0v14.733h5.03V15.571h-5.03zM38.75 30.323V15.608h-5.012v14.715h5.012zM7.558 40.257v-7.925H2.564v7.925h4.994zm1.946-.038h5.03v-7.924h-5.03v7.924zm24.216-.018h5.03v-7.888h-5.03v7.888zm7.014-7.906v7.943h5.012v-7.943h-5.012zm-8.941-16.706h-15.33v4.558c.091.037.201.074.293.112.11-.28.294-.54.33-.838.203-1.562 1.323-2.604 2.828-2.604s2.607 1.042 2.79 2.623c.019.242.074.465.11.744h2.461c.239-.781.349-1.47.66-2.046.588-1.079 1.91-1.581 3.085-1.284 1.139.28 1.965 1.303 2.093 2.53.055.428-.073.986.68.744V15.59zm-2.497 14.752v-7.385c0-1.116.073-2.232-.037-3.33-.037-.335-.57-.818-.918-.856-.275-.037-.771.428-.918.763-.165.39-.018.912-.092 1.377-.055.335-.22.67-.367.986-.147.353-.477.688-.477 1.042-.037 2.195-.019 4.39-.019 6.585 0 .26.055.52.074.818h2.754zm-7.51-.018c0-1.34.11-2.642-.018-3.925-.183-1.675.698-3.498-.752-5.042-.312-.335 0-1.228-.184-1.786-.11-.353-.532-.744-.881-.837-.533-.13-.9.242-.973.837-.019.15-.019.317-.019.465v9.637c0 .204.056.409.074.65h2.754zm-4.259-18.268h-15v1.6h1.029c3.176 0 6.37-.093 9.528.037 1.726.093 3.085-.428 4.443-1.637zm28.255 0H30.765c1.285.986 2.405 1.73 4.039 1.656 3.323-.15 6.664-.038 10.005-.038h.973v-1.618zm-24.4 28.164h5.49c.074-1.488.33-2.995-1.12-3.962-.991-.67-2.093-.688-3.102-.074-1.58.93-1.34 2.492-1.267 4.036zM18.777 13.58H29.59a419.779 419.779 0 0 0-5.031-3.311c-.165-.112-.496-.112-.643-.019-1.67 1.042-3.323 2.14-5.14 3.33zm4.865 8.557c0 2.605-.018 5.172.018 7.72 0 .168.294.336.46.522.165-.205.458-.41.458-.596.037-2.437.019-4.892 0-7.33 0-.11-.073-.222-.128-.371-.257 0-.496.018-.808.056zm8.17.056a2.616 2.616 0 0 0-.275-.204c-.129.204-.386.409-.386.632-.037 2.4-.037 4.818 0 7.218 0 .205.294.39.459.595.073-.055.128-.13.202-.186v-8.055zm-15.349 8.074c.092.056.166.112.257.167.129-.204.368-.409.368-.614.018-2.4.018-4.818 0-7.217 0-.205-.239-.41-.386-.596-.073.056-.147.093-.239.15v8.11zm11.659-26.23v-1.45H25.22v1.45h2.9z"/></g><g><path fill="#fff" d="M39.374 44.968c-.367.223-.77.67-1.064.614-.331-.074-.753-.595-.808-.949-.037-.242.532-.762.844-.762.33-.019.68.427 1.028.67.019.13 0 .278 0 .427z"/></g><g><path fill="#fff" d="M44.131 19.631c0 .317.11.689-.018.912-.202.353-.57.837-.882.837-.312 0-.789-.465-.88-.818a3.827 3.827 0 0 1 0-1.823c.091-.335.55-.819.862-.819.294 0 .68.446.9.8.128.223.018.614.018.911z"/></g><g><path fill="#fff" d="M42.308 26.154v-.279c-.037-.688.055-1.395.918-1.395.881 0 .936.688.918 1.395-.018.41.018.8 0 1.21-.037.576-.312.93-.918.93-.587 0-.881-.354-.918-.93-.018-.317 0-.615 0-.93z"/></g><g><path fill="#fff" d="M11.1 19.606c0-1.321.257-1.823.936-1.749 1.138.13.863 1.06.9 1.805.018.279.11.632-.019.818-.238.372-.606.633-.918.949-.293-.335-.642-.633-.863-1.005-.146-.186-.036-.54-.036-.818z"/></g><g><path fill="#fff" d="M12.93 26.439c-.037.576.202 1.47-.9 1.581-.715.074-.954-.372-.954-1.711 0-.28-.092-.614.018-.819.22-.372.514-.874.863-.949.588-.13.918.354.955.968.018.242.018.52.018.93z"/></g><g><path fill="#fff" d="M5.937 19.666c0 .316.11.688-.018.911-.22.354-.606.8-.918.8-.294 0-.753-.483-.845-.855-.147-.503-.036-1.08-.036-1.638 0-.632.348-1.078.936-.967.349.075.66.577.881.949.11.186.019.54 0 .8 0 0 .019 0 0 0z"/></g><g><path fill="#fff" d="M4.126 26.289c0-.28-.092-.614.018-.819.22-.372.514-.874.863-.949.588-.13.918.354.936.968.019.483 0 .986 0 1.47 0 .595-.238 1.041-.88 1.06-.698.018-.955-.428-.955-1.08.018-.223.018-.446.018-.65z"/></g><g><path fill="#fff" d="M37.171 19.625c0 .316.11.688-.018.911-.202.354-.57.837-.882.837-.312 0-.789-.465-.88-.8a3.827 3.827 0 0 1 0-1.823c.091-.334.605-.855.862-.818.349.056.68.52.918.893.092.186 0 .52 0 .8z"/></g><g><path fill="#fff" d="M37.174 26.212v.837c-.018.577-.275.949-.881.967-.643.02-.936-.372-.955-.985-.018-.484 0-.986 0-1.47 0-.614.276-1.042.881-1.06.68-.019.955.427.955 1.079v.632z"/></g></g></g></svg>