<svg xmlns="http://www.w3.org/2000/svg" width="64" height="55" viewBox="0 0 64 55"><g><g><g/><g><path fill="#fff" d="M3.653 28.384c.3-1.17.476-2.338.9-3.386.25-.584.876-1.047 1.426-1.461 1.526-1.145 1.801-2.217.9-3.897-1.425-2.606-.424-5.456 2.227-6.455.425-.146.875-.22 1.325-.292 1.6-.341 2.326-1.242 2.301-2.85-.05-3.824 2.476-5.797 6.228-4.871 1.6.39 2.85-.098 3.4-1.657C23.612.032 27.989-.382 30.09 1.81c1.125 1.194 2.626 1.17 3.776 0 2.126-2.216 6.503-1.73 7.728 1.705.525 1.51 1.726 2.12 3.277 1.632 3.776-1.169 6.752 1.583 6.377 5.018-.175 1.461.75 2.363 2.301 2.704 3.876.828 5.202 3.531 3.426 6.966-.7 1.364-.525 2.63.726 3.434 1.875 1.218 2.626 2.85 2.3 5.115 1.451.17 3.177-.244 3.852 1.559.65 1.73-.9 2.63-1.576 3.995.35.487.776 1.047 1.15 1.607 1.126 1.73.1 3.63-2 3.702-.45.025-.925 0-1.376 0-1.475-.024-2.9-.219-3.951 1.316-.425.609-1.576.852-2.426 1.047-1.7.414-2.45 1.194-2.426 2.85.05 3.848-2.4 5.748-6.227 4.847-1.601-.39-2.751.195-3.427 1.656-1.55 3.386-4.802 4.117-7.678 1.68-1.275-1.07-2.55-1.07-3.801 0-2.876 2.412-6.128 1.706-7.678-1.68-.7-1.534-1.826-2.046-3.552-1.607-3.551.9-6.177-1.12-6.102-4.75.025-1.778-.65-2.63-2.426-2.947-1.35-.244-2.5-.78-3.351-1.924-.2-.268-.675-.439-1.026-.463-1.175-.049-2.326-.025-3.501-.025-1 0-1.926-.365-2.176-1.315-.2-.73-.025-1.632.225-2.387.2-.584.75-1.096 1.15-1.632-2.6-4.238-2.35-4.871 1.976-5.529zm36.565-17.562v1.438c0 2.314.025 4.627 0 6.941-.025 1.291-.6 1.973-1.851 1.973-4.252.049-8.503.025-12.755 0-.925 0-1.626-.487-1.75-1.437-.1-.755-.15-1.559 0-2.29.074-.34.625-.852.925-.852.325 0 .8.536.9.901.15.536.05 1.17.05 1.705h12.455V9.093h-3.176c-.525 1.68.9 4.384-2.501 4.36-.876 0-2.251.024-2.551-.463-.65-1.096-.8-2.509-1.15-3.897h-3.052c0 1.34.075 2.582-.05 3.824-.025.366-.6.707-.925 1.048-.325-.341-.826-.658-.926-1.048-.15-.584-.05-1.242-.05-1.924-6.202 2.046-11.954 11.862-10.304 17.488 1.3 0 2.626.05 3.952 0 2.45-.097 4.877-.365 7.303-.365s3.926-.95 4.651-3.24c.35-1.071 1.326-1.631 2.526-1.656 1.251-.024 2.126.61 2.677 1.657.35.682.65 1.412 1.075 2.046.25.365.7.755 1.1.803 2.601.293 5.177.634 7.779.707 4.001.121 8.003.024 12.004.024 1.576 0 2.101-.706 1.45-2.095-.25-.56-.75-1.047-1.275-1.437-2.076-1.534-2.626-3.775-1.4-6.016 1.175-2.168.35-3.824-2.151-4.238-2.376-.39-3.952-2.241-3.902-4.628.05-2.704-1.225-3.727-3.901-3.093-2.476.584-4.477-.341-5.502-2.607-1.076-2.362-2.826-2.752-4.802-1.071-1.851 1.583-4.302 1.583-6.128.048-2.05-1.729-3.751-1.34-4.877 1.072-1.025 2.217-3.126 3.19-5.552 2.558-2.476-.658-3.901.414-3.851 2.898.05 2.655-1.4 4.384-4.077 4.823-2.2.365-3.101 2.143-2.05 4.067 1.35 2.51.875 4.58-1.476 6.26-.926.658-1.45 1.486-1.276 2.582.05.317.5.828.8.828 1.526.073 3.052.05 4.527.05.125-.196.176-.245.2-.318.026-.17 0-.316.026-.487.125-8.403 4.001-14.59 11.654-18.536.325-.17.7-.462.85-.779.376-.877 1.05-1.194 1.951-1.194 4.127 0 8.253-.024 12.38.025.55 0 1.426.317 1.576.706.425.999 1.3 1.242 2.075 1.754 1.426.901 2.877 1.802 4.152 2.898 3.626 3.191 5.677 7.235 6.453 11.911.1.658.175 1.388-.776 1.51-.85.098-1-.56-1.125-1.169-.1-.609-.175-1.218-.325-1.802-1.426-5.408-4.677-9.378-10.004-12.155zM9.506 39.515c.325.098.675.195 1 .268 2.876.56 4.252 2.241 4.177 5.14-.075 2.094 1.475 3.263 3.601 2.679 2.701-.706 4.802.243 5.877 2.704.926 2.094 2.827 2.508 4.577 1.023 2.101-1.778 4.377-1.778 6.503.024 1.7 1.437 3.626.999 4.527-.999 1.1-2.509 3.176-3.507 5.852-2.8 2.276.608 3.751-.537 3.651-2.85-.1-2.607 1.376-4.41 4.002-4.945.4-.073.8-.195 1.2-.317-1.725-.219-3.376-.292-5.027-.195-.5.025-1.125.317-1.425.682-8.479 9.89-23.51 9.865-32.063-.048-.25-.293-.625-.61-.975-.634-1.8 0-3.627.025-5.427.025-.025.073-.025.17-.05.243zm-7.703-2.508c.075.121.175.267.25.39h1.475c6.703 0 13.406 0 20.083-.025.525 0 1.4-.17 1.476-.439.2-.803.75-1.705-.25-2.533-1.3-1.071-2.801-2.119-2.626-4.14-5.953 0-11.755-.025-17.582.024-.875 0-1.75.195-2.626.292.425.707.75 1.51 1.275 2.144.676.828.626 1.485-.025 2.265-.55.658-.975 1.364-1.45 2.022zm39.915-6.723c.225 1.559-.675 2.509-1.7 3.386-.376.316-.926.608-1.026 1.022-.2.707-.225 1.51-.1 2.241.025.22.775.463 1.2.463 6.878.025 13.756.025 20.634.025.425 0 .85-.098 1.4-.17-.225-.44-.35-.683-.5-.926-1.65-2.388-1.65-2.363 0-4.799.2-.268.225-.658.35-.974-.35-.098-.675-.268-1.025-.268-4.752-.024-9.504-.024-14.256-.024-1.6.024-3.226.024-4.977.024zm-14.956 8.428c0 .828.826 1.34 1.651.73 2.451-1.802 4.777-1.802 7.178 0 .275.195.975.195 1.225-.024.275-.22.35-.78.326-1.17-.1-.974-.4-1.9-.45-2.873-.026-.488.15-1.097.45-1.486.6-.731 1.375-1.291 2-1.998.3-.365.626-.925.55-1.34-.05-.291-.7-.608-1.125-.705-.85-.195-1.726-.268-2.6-.342-.826-.073-1.376-.39-1.727-1.169a23.162 23.162 0 0 0-1.3-2.606c-.525-.926-1.376-.901-1.9.024-.3.536-.601 1.072-.801 1.632-.525 1.462-1.4 2.314-3.101 2.241-.6-.024-1.226.122-1.851.244-1.226.243-1.476.999-.625 1.875.65.682 1.35 1.34 2.05 1.949.576.511.826 1.023.6 1.827-.274 1.023-.374 2.07-.55 3.19zm-8.778.633c8.704 9.475 22.734 6.869 27.81-.025h-6.602c-1.3 2.387-2.65 2.85-5.052 1.462-1.525-.877-2.85-1.096-4.251 0-.075.049-.15.097-.225.122-2.276 1.144-3.702.682-4.827-1.584-2.226.025-4.452.025-6.853.025zM32.89 11.602V9.093h-1.826v2.509h1.826z"/></g><g><path fill="#fff" d="M54.55 3.958c-.65-.584-1.05-.95-1.45-1.29.4-.415.775-.829 1.175-1.243.025.025.05.025.075.049.426-.463.85-.901 1.276-1.364.4.414.8.853 1.225 1.267.025 0 .025-.025.05-.025l1.276 1.316c-.4.365-.825.73-1.225 1.071l-.025-.024c-.426.438-.85.877-1.276 1.34-.425-.415-.825-.829-1.1-1.097z"/></g><g><path fill="#fff" d="M17.907 21.37c.425-.366.8-.999 1.25-1.048.325-.048.75.658 1.1 1.072.45.414.926.828 1.376 1.242-.4.414-.825.828-1.225 1.243-.1-.074-.175-.147-.275-.195-.075.292-.075.633-.225.9-.326.61-1.076.853-1.376.293-.4-.828-1.05-1.193-1.75-1.68-.7-.488-.076-1.291 1.2-1.51.025-.098-.025-.195-.075-.317z"/></g><g><path fill="#fff" d="M46.091 21.415c.426.438.876.852 1.301 1.29-.425.39-.875.805-1.426 1.316-.275.292-.675.706-1.075 1.12l-1.225-1.193h-.025c-.426-.438-.876-.877-1.301-1.315.45-.39.9-.78 1.2-1.023.526-.536.926-.926 1.326-1.34.375.365.8.755 1.225 1.145-.025 0-.025 0 0 0z"/></g></g></g></svg>