<svg xmlns="http://www.w3.org/2000/svg" width="60" height="58" viewBox="0 0 60 58"><g><g><g/><g><path fill="#fff" d="M50.257 50.666c-4.167-1.55-4.772-7.036-2.398-9.964 1.889-2.337 5.038-2.361 6.903-.024 2.52 3.173 1.575 7.847-1.89 9.816-.411.245-.532 1.057-.799 1.598.097.074.218.123.315.197.242-.123.509-.32.727-.32.484.025.969.197 1.453.296-.17.467-.266 1.033-.557 1.402-.29.369-.848.467-1.211.787-.29.246-.436.64-.824 1.206h6.516c.727 0 1.502.024 1.502.96.024.958-.727 1.008-1.477 1.008H1.472c-.727 0-1.478-.025-1.502-.984 0-.96.75-1.009 1.478-.984.726.024 1.453 0 2.35 0v-1.476c0-14.466.023-28.93-.025-43.42 0-1.378.412-2.24 1.502-3.076 2.737-2.09 5.401-4.305 8.042-6.52.848-.712 1.453-.737 2.301-.024 2.543 2.14 5.184 4.182 7.727 6.323.63.516.993.54 1.623 0C27.56 5.302 30.2 3.235 32.792 1.07c.775-.64 1.356-.615 2.107 0a486.704 486.704 0 0 0 8.793 7.134c.703.566.8 1.205.8 2.042-.025 14.588 0 29.176 0 43.789v1.525h5.716c.049-1.55.049-3.149.049-4.895zm-27.033 2.042v-.935c0-12.005 0-24.01-.024-36.016 0-.516-.34-1.18-.727-1.5-2.374-2.018-4.845-3.961-7.243-5.954-.533-.443-.896-.443-1.453 0a413.661 413.661 0 0 1-7.17 5.83c-.654.517-.824 1.083-.824 1.87.025 11.809.025 23.592.025 35.4v1.255h3.875v-7.43c0-.835.267-1.352 1.163-1.352h7.388c.8 0 1.163.443 1.163 1.23v7.602h3.827zm19.305-.025c.025-.221.073-.344.073-.467 0-12.202.024-24.404-.024-36.631 0-.443-.34-.984-.678-1.28-2.422-2.041-4.917-3.985-7.34-6.026-.581-.492-.945-.32-1.453.073-2.35 1.944-4.7 3.863-7.097 5.757-.63.492-.897 1.009-.897 1.845.025 11.833.025 23.666.025 35.523 0 .394.024.788.048 1.157h3.827v-6.962c0-1.648.121-1.796 1.696-1.796h6.298c1.574 0 1.695.148 1.695 1.796v7.011h3.828zm-25.167-6.74h-5.668v9.668h5.668v-9.669zm13.71-.05v9.693h5.668v-9.693h-5.668zM5.93 12.19c2.325-1.87 4.578-3.715 6.83-5.535 1.769-1.452 1.745-1.452 3.513 0 2.253 1.845 4.505 3.665 6.855 5.56.315-1.427.097-2.411-1.066-3.272-2.35-1.747-4.578-3.641-6.806-5.51-.533-.444-.897-.468-1.454 0-2.204 1.844-4.408 3.714-6.71 5.436-1.21.836-1.526 1.796-1.162 3.321zm36.552 0c.412-1.624-.097-2.583-1.284-3.469-2.252-1.648-4.384-3.468-6.516-5.289-.581-.492-.944-.492-1.55 0-2.228 1.87-4.457 3.764-6.806 5.51-1.212.886-1.26 1.87-1.018 3.273 2.47-2.018 4.82-3.936 7.194-5.855 1.43-1.157 1.43-1.157 2.859 0 2.325 1.919 4.675 3.837 7.121 5.83zm9.81 36.36c2.253-1.722 2.592-5.019.776-6.716-.533-.517-1.502-.836-2.253-.763-1.284.099-2.277 1.747-2.398 3.444-.121 1.772.605 3.272 1.938 3.863 0-1.009.024-1.968 0-2.952-.025-.763.072-1.5.993-1.476.944.024.969.787.944 1.525v3.075zM5.905 55.61h3.681c-.024-.984-.024-.984-2.834-.91-.58 0-1.21-.074-.847.91zm17.246-.86H19.47c-.315 1.279.606.91 1.115.91 2.567.049 2.567.024 2.567-.91zm2.204-.025c-.096.123-.193.221-.29.344.242.197.484.566.75.59.873.075 1.769.075 2.641 0 .242-.024.436-.467.848-.91-1.623-.024-2.786-.024-3.948-.024zm13.59 0c-.097.098-.194.221-.315.32.242.221.46.59.726.59a15.77 15.77 0 0 0 2.64 0c.243-.024.46-.443.679-.689-.097-.074-.17-.147-.267-.221h-3.463z"/></g><g><path fill="#fff" d="M9.691 21.25c0-1.895.024-3.617-.024-5.34-.024-1.082.339-1.574 1.477-1.55 2.253.05 4.53.05 6.783 0 1.114-.024 1.502.468 1.477 1.55-.048 1.723-.024 3.445-.024 5.34.63 0 1.211-.026 1.793 0 1.308.048 1.21 1.082 1.065 1.893-.193 1.058.872 2.879-1.065 2.977-4.433.172-8.866.05-13.323.05-.75 0-1.09-.419-1.09-1.157v-2.091c0-1.476.17-1.648 1.574-1.648.412-.025.824-.025 1.357-.025zm7.727-1.895h-5.692v1.796h5.692v-1.796zm-8.502 3.887c-.097.123-.194.221-.315.344.266.197.557.566.824.59 3.39.05 6.782.025 10.173.025.775 0 .872-.32.606-.96H8.916zm2.907-6.888c-.097.098-.218.22-.315.32.266.196.533.59.823.59 1.454.049 2.907 0 4.36.024.751.025.872-.295.63-.96-1.865.026-3.682.026-5.498.026z"/></g><g><path fill="#fff" d="M19.372 34.798c.146.123.17.172.194.197.848.172 2.253.098 2.398.516.388 1.083.315 2.386.218 3.592-.024.295-.726.812-1.114.812-4.408.049-8.793.049-13.201.024-.727 0-1.115-.393-1.115-1.131v-.738c0-3.47-.193-2.903 2.907-3.125 0-1.722.049-3.493-.024-5.215-.049-1.156.412-1.624 1.55-1.6 2.253.05 4.53.026 6.783 0 .968 0 1.38.42 1.38 1.403 0 1.771.024 3.567.024 5.265zM11.67 33.1v1.845h5.668V33.1H11.67zm8.453 4.847l.291-.37c-.266-.196-.557-.565-.824-.565-3.39-.05-6.782-.025-10.173-.025-.775 0-.872.32-.581.96h11.287zm-8.308-7.823l-.29.369c.266.196.556.54.823.565 1.453.05 2.907 0 4.36.025.8.025.848-.32.581-.96h-5.474z"/></g><g><path fill="#fff" d="M29.041 21.244c0-1.845.048-3.616-.024-5.363-.049-1.205.484-1.574 1.598-1.55 2.18.05 4.36.05 6.54 0 1.14-.024 1.624.394 1.575 1.575-.048 1.722-.024 3.444-.024 5.19.194.05.339.099.484.123.775.197 2.132.246 2.229.615.29 1.181.145 2.51.048 3.764-.024.222-.702.542-1.066.542-4.36.049-8.72.049-13.08.024-1.163 0-1.211-.172-1.211-3.149 0-.91-.024-1.796 1.235-1.771h1.696zm1.986-.098h5.717v-1.82h-5.717v1.82zm-2.834 2.115c-.072.099-.145.197-.194.32.267.197.533.59.8.59 3.391.05 6.782.025 10.173.025.751 0 .872-.295.63-.935H28.193zm8.696-6.544c-.097-.098-.194-.221-.29-.32h-5.523c-.073.099-.121.222-.194.32.266.197.557.566.824.566 1.453.05 2.906.05 4.36 0 .29-.024.557-.369.823-.566z"/></g><g><path fill="#fff" d="M38.726 34.9c2.93.369 2.93.369 2.907 3.37 0 1.5-.17 1.673-1.696 1.673H27.826c-1.575 0-1.696-.148-1.696-1.796 0-2.903 0-2.903 2.907-3.247v-4.994c0-1.673.12-1.796 1.816-1.796h6.056c1.744 0 1.817.098 1.817 1.919v4.87zm-7.703.049h5.692v-1.82h-5.692v1.82zm-3.028 2.657c.097.098.194.197.29.32h11.337c.073-.123.121-.222.194-.345-.29-.197-.557-.54-.848-.566-3.391-.049-6.782-.049-10.15 0-.29 0-.556.37-.823.59zm3.173-7.479l-.29.37c.29.196.557.565.847.565 1.454.05 2.907 0 4.36.025.8.024.848-.32.582-.96h-5.499z"/></g><g><path fill="#fff" d="M16.447 50.787c0 .295.096.64-.025.837-.242.393-.605.713-.92 1.082-.34-.344-.8-.615-.945-1.033-.17-.468-.17-1.083 0-1.575s.606-.885.92-1.328c.34.418.703.812.97 1.28.096.196.024.491 0 .737z"/></g><g><path fill="#fff" d="M33.887 50.719c0-.246-.097-.541.024-.714.266-.418.605-.811.92-1.205.34.369.776.713.97 1.156.169.418.169 1.009 0 1.452-.17.492-.606.885-.921 1.328-.34-.418-.703-.812-.97-1.28-.096-.171-.023-.491-.023-.737z"/></g></g></g></svg>