<svg xmlns="http://www.w3.org/2000/svg" width="57" height="58" viewBox="0 0 57 58"><g><g><g/><g><path fill="#fff" d="M8.268 14.708c0 1.919-.023 3.703.022 5.466 0 .245.313.558.559.714 1.23.803 1.833 1.896 1.81 3.368a133.695 133.695 0 0 0 0 4.24c0 .98-.446 1.45-1.43 1.427H4.87c-.916 0-1.386-.446-1.386-1.36 0-1.562-.022-3.124 0-4.686.023-1.249.604-2.253 1.654-2.855.626-.357.76-.781.738-1.428a85.798 85.798 0 0 1 0-4.797c.022-.691-.156-1.048-.894-1.271a34.462 34.462 0 0 1-4.09-1.473c-.425-.178-.984-.78-.94-1.137C.02 10.469.535 9.867.982 9.71 10.01 6.543 18.997 3.442 27.983.363c.514-.178 1.23 0 1.81.201 7.265 2.499 14.53 5.02 21.795 7.54 1.43.491 2.906.938 4.292 1.518.491.223 1.14.803 1.162 1.249 0 .424-.648 1.07-1.14 1.25a514.104 514.104 0 0 1-11.668 4.082c-.738.245-.961.513-.85 1.316.604 4.328 1.32 8.678 1.61 13.029.156 2.298 1.006 4.372 1.319 6.603 1.296 9.259-5.365 18.383-14.686 19.9-9.634 1.562-18.53-4.484-20.565-14.01-.581-2.7-.604-5.421.224-8.031.58-1.785.715-3.614.938-5.422.492-4.015.984-8.03 1.52-12.047.09-.669 0-1.004-.693-1.227-1.564-.49-3.107-1.026-4.783-1.606zM40.97 17.43c-.425.134-.76.223-1.118.357-3.375 1.16-6.75 2.298-10.103 3.502-.85.313-1.61.29-2.459-.022a919.896 919.896 0 0 0-10.193-3.525c-.29-.111-.603-.156-.983-.245-.581 4.73-1.163 9.347-1.766 14.255 3.51.536 6.84 1.183 10.17 1.517 5.902.603 11.713-.044 17.458-1.583.559-.157.715-.402.648-.937-.156-1.205-.29-2.432-.447-3.637-.402-3.212-.805-6.403-1.207-9.682zM5.116 10.826c0 .112 0 .201-.022.313.939.2 1.9.647 2.839.557 5.297-.423 10.595-1.003 15.893-1.472.782-.067 1.318-.268 1.698-1.07.648-1.34 2.303-2.009 3.688-1.719 1.61.335 2.772 1.584 2.929 3.124.156 1.539-.67 3.011-2.034 3.658-1.386.647-3.174.424-4.069-.803-.67-.914-1.363-.937-2.28-.758-.29.067-.603.044-.894.067-3.219.312-6.46.602-9.97.937.426.2.582.29.76.357 4.762 1.65 9.546 3.301 14.33 4.93.446.156 1.027.09 1.474-.067 7.22-2.476 14.463-4.997 21.683-7.496.313-.111.626-.245 1.095-.424-.358-.156-.447-.2-.559-.245-7.51-2.61-14.999-5.22-22.51-7.786-.424-.156-1.005-.067-1.475.09-7.22 2.43-14.417 4.93-21.592 7.428-.336.112-.671.246-.984.38zm7.958 28.98c.268 5.555 2.637 9.928 7.399 12.783 5.655 3.391 11.467 3.235 16.92-.49 4.963-3.414 6.997-8.344 6.55-14.568-1.162.87-2.034 1.628-1.99 3.056.045 1.45.135 2.9 0 4.328-.2 2.075-1.363 3.502-3.397 4.105-2.034.624-3.51-.424-3.51-2.566 0-.981.246-1.985.492-2.922.447-1.673-.044-2.41-1.743-2.544-.559-.044-1.118-.111-1.677-.156-1.453-.111-2.458-.87-2.906-2.23-.29-.848-.424-1.763-.648-2.856-1.72.089-3.532.067-5.32.267-2.28.268-2.28.335-2.682 2.633-.425 2.41-2.459 3.681-4.784 2.81-.938-.356-1.743-1.048-2.704-1.65zm29.975-5.689c-3.666.536-7.153 1.071-10.64 1.517-1.162.156-1.43.402-1.162 1.54.2.803.67 1.316 1.542 1.338.492.022.961.022 1.453.045 2.705.223 4.27 2.298 3.733 4.952-.112.536-.358 1.049-.47 1.584-.111.536-.089 1.116-.156 1.763 1.296-.268 2.034-.893 2.146-1.941.134-1.138.134-2.298.067-3.436-.157-2.498.603-4.55 2.883-5.8.895-.469 1.073-.937.604-1.562zm-28.88-.2c-.715 1.539.715 4.84 2.213 5.309 1.028.335 1.676-.067 1.833-1.115.179-1.027.335-2.075.514-3.146-1.475-.357-2.995-.692-4.56-1.049zm-5.924-6.403c0-1.272.112-2.432-.044-3.547-.067-.424-.693-1.049-1.073-1.071-.38 0-1.05.624-1.118 1.026-.156 1.16-.045 2.342-.045 3.57.783.022 1.453.022 2.28.022zm21.638-16.308c0-.179 0-.357.022-.536-.424-.312-.804-.78-1.251-.87-.716-.156-1.185.313-1.207 1.071-.023.759.424 1.25 1.162 1.138.425-.09.827-.536 1.274-.803z"/></g><g><path fill="#fff" d="M18.3 45.924c.022-2.81 2.28-4.707 4.47-3.993 1.252.402 2.37 1.294 3.398 2.142.514.401.872.758 1.587.78 1.744.023 2.705.87 2.95 2.41.18 1.227-.58 2.432-2.123 2.856-1.14.312-1.743.847-2.078 1.985-.425 1.495-2.504 1.807-3.22.424-.983-1.896-2.28-3.346-3.956-4.618-.626-.49-.827-1.584-1.028-1.986zm10.037 1.495c-.38-.067-.604-.156-.828-.156-1.318 0-2.324-.424-3.129-1.562-.402-.58-1.185-.959-1.878-1.294-.603-.29-1.251-.267-1.61.491-.312.714-.11 1.272.47 1.763 1.185 1.004 2.325 2.03 3.309 2.9a153.64 153.64 0 0 1 3.666-2.142z"/></g></g></g></svg>