<svg xmlns="http://www.w3.org/2000/svg" width="35" height="35" viewBox="0 0 35 35"><g><g><path fill="#fff" d="M.58 17.708C.58 8.204 8.284.5 17.788.5c9.504 0 17.209 7.704 17.209 17.208 0 9.504-7.705 17.209-17.209 17.209S.58 27.212.58 17.708zm9.957-.066a7.22 7.22 0 0 0 .972 3.624l-1.034 3.756 3.862-1.009a7.34 7.34 0 0 0 3.48.883h.002c4.014 0 7.283-3.25 7.283-7.247a7.183 7.183 0 0 0-2.131-5.129 7.25 7.25 0 0 0-5.152-2.125c-4.013 0-7.282 3.25-7.282 7.247zm7.28 6.03a6.054 6.054 0 0 1-3.08-.84l-.22-.13-2.293.597.612-2.223-.145-.229a5.956 5.956 0 0 1-.924-3.205c0-3.322 2.715-6.023 6.055-6.023 1.616 0 3.138.629 4.28 1.766a5.978 5.978 0 0 1 1.772 4.262c-.002 3.321-2.719 6.025-6.055 6.025zm1.67-5.012a9.88 9.88 0 0 1-.578.71c-.106.12-.211.134-.395.045-.03-.015-.073-.034-.125-.056-.257-.112-.76-.33-1.34-.843a5.474 5.474 0 0 1-1.011-1.254c-.094-.161-.02-.25.054-.338l.026-.032c.198-.243.396-.5.456-.62.06-.121.03-.227-.017-.318a40.635 40.635 0 0 1-.372-.889l-.188-.456c-.13-.31-.261-.31-.367-.31l-.043-.001a8.267 8.267 0 0 0-.35-.007.669.669 0 0 0-.484.226l-.033.035c-.189.2-.604.638-.604 1.475 0 .872.628 1.718.737 1.866a.311.311 0 0 1 .006.008l.034.047c.223.318 1.373 1.955 3.074 2.686.434.188.772.298 1.036.382.437.138.833.12 1.147.071.35-.052 1.076-.44 1.228-.86.152-.423.152-.785.106-.86-.033-.056-.116-.097-.24-.157a6.381 6.381 0 0 1-.105-.051c-.182-.092-1.076-.529-1.244-.59-.168-.06-.287-.092-.409.091z"/></g></g></svg>