<svg xmlns="http://www.w3.org/2000/svg" width="35" height="35" viewBox="0 0 35 35"><g><g><path fill="#fff" d="M.21 17.708C.21 8.204 7.914.5 17.418.5c9.504 0 17.209 7.704 17.209 17.208 0 9.504-7.705 17.209-17.209 17.209S.21 27.212.21 17.708zm17.208-4.732s-4.308 0-5.387.28a1.746 1.746 0 0 0-1.214 1.202c-.282 1.057-.282 3.25-.282 3.25s0 2.204.284 3.25c.16.58.625 1.037 1.215 1.193 1.089.29 5.386.29 5.386.29s4.309 0 5.387-.28a1.713 1.713 0 0 0 1.215-1.192c.284-1.057.284-3.251.284-3.251s.006-2.203-.289-3.262a1.713 1.713 0 0 0-1.214-1.192c-1.076-.288-5.385-.288-5.385-.288zm-1.371 6.759v-4.053l3.583 2.027z"/></g></g></svg>